<?xml version="1.0" encoding="UTF-8"?>
<svg version="1.1" xmlns="http://www.w3.org/2000/svg" width="500" height="500">
<path d="M0 0 C1.39189674 -0.0006766 2.78379336 -0.00164955 4.1756897 -0.00289917 C7.06131134 -0.00435651 9.9469016 -0.00228391 12.83251953 0.00244141 C16.50699514 0.00816999 20.18139817 0.00482749 23.8558712 -0.00113106 C26.71795184 -0.00476273 29.58001554 -0.0035867 32.44209671 -0.00100327 C34.44767556 -0.00002551 36.45325511 -0.00302648 38.45883179 -0.00613403 C45.00897571 0.01062181 51.35963782 0.24687021 57.8515625 1.1328125 C55.21508673 6.37510735 51.13336859 10.03708713 46.9765625 14.0703125 C41.27730299 19.5800881 41.27730299 19.5800881 36.03125 25.51171875 C33.65924241 28.36407913 32.12690484 30.00424653 28.35618591 30.3843689 C26.86587608 30.38625717 26.86587608 30.38625717 25.34545898 30.38818359 C24.21675888 30.39514252 23.08805878 30.40210144 21.92515564 30.40927124 C20.70333084 30.40827423 19.48150604 30.40727722 18.22265625 30.40625 C15.63476139 30.42655079 13.0468708 30.44740178 10.45898438 30.46875 C6.37980403 30.49341296 2.30068611 30.50863955 -1.77856445 30.51367188 C-5.71588712 30.51969922 -9.65268622 30.55707809 -13.58984375 30.59375 C-14.79749893 30.58870453 -16.00515411 30.58365906 -17.24940491 30.57846069 C-24.44949492 30.66144596 -30.86555437 31.3455096 -37.1484375 35.1328125 C-39.30670912 38.37021992 -39.88164081 39.37514553 -39.1484375 43.1328125 C-34.42824991 47.02884035 -29.96983453 48.14642608 -24.0234375 49.1953125 C-22.71705322 49.4428125 -22.71705322 49.4428125 -21.38427734 49.6953125 C-15.20295729 50.84037125 -8.99716416 51.7544012 -2.7734375 52.6328125 C10.49101699 54.52388831 24.55518777 57.60189601 35.8515625 65.1328125 C35.8515625 65.7928125 35.8515625 66.4528125 35.8515625 67.1328125 C36.74488281 67.49632812 36.74488281 67.49632812 37.65625 67.8671875 C40.27323857 69.37591401 41.33772194 70.86019929 42.9765625 73.3828125 C43.47414063 74.13046875 43.97171875 74.878125 44.484375 75.6484375 C48.84519335 83.57266742 49.11787589 92.47037705 47.1640625 101.20703125 C43.12651979 113.26919011 34.5216737 122.16900237 23.32421875 128.0078125 C9.10093549 134.47906934 -6.02551962 135.8536599 -21.4609375 136.1953125 C-22.69376968 136.2230777 -22.69376968 136.2230777 -23.95150757 136.25140381 C-33.1933888 136.3601704 -40.90747704 136.40024146 -48.08862305 129.86108398 C-55.1484375 121.93041486 -55.1484375 121.93041486 -55.1484375 118.1328125 C-55.8084375 118.1328125 -56.4684375 118.1328125 -57.1484375 118.1328125 C-57.1484375 117.4728125 -57.1484375 116.8128125 -57.1484375 116.1328125 C-57.8084375 116.1328125 -58.4684375 116.1328125 -59.1484375 116.1328125 C-59.1484375 115.4728125 -59.1484375 114.8128125 -59.1484375 114.1328125 C-59.8084375 114.1328125 -60.4684375 114.1328125 -61.1484375 114.1328125 C-62.65625 112.671875 -62.65625 112.671875 -64.2734375 110.7578125 C-64.81226563 110.13132812 -65.35109375 109.50484375 -65.90625 108.859375 C-67.1484375 107.1328125 -67.1484375 107.1328125 -67.1484375 105.1328125 C-66.46685074 105.12472565 -65.78526398 105.11663879 -65.08302307 105.10830688 C-57.96084583 105.0219559 -50.83893717 104.92244014 -43.71704102 104.81542969 C-41.06242981 104.77620695 -38.40790663 104.74237965 -35.75317383 104.7109375 C-31.9277167 104.66504636 -28.10259901 104.60709108 -24.27734375 104.546875 C-23.09886368 104.53532379 -21.92038361 104.52377258 -20.70619202 104.51187134 C-12.74814022 104.37074995 -4.92533822 103.93000227 2.2890625 100.1953125 C2.92714844 99.87691406 3.56523437 99.55851562 4.22265625 99.23046875 C6.16830886 98.0693904 6.16830886 98.0693904 7.8515625 95.1328125 C7.53425726 91.49341318 7.53425726 91.49341318 6.8515625 88.1328125 C5.9646875 87.8440625 5.0778125 87.5553125 4.1640625 87.2578125 C0.8515625 86.1328125 0.8515625 86.1328125 -1.3984375 85.1328125 C-8.97367965 82.37817899 -17.18887233 81.69555196 -25.1484375 80.7578125 C-68.63317218 75.28413606 -68.63317218 75.28413606 -79.1484375 62.1328125 C-82.44214853 56.6776036 -82.94660648 51.36467029 -82.1484375 45.1328125 C-80.6484375 41.5078125 -80.6484375 41.5078125 -79.1484375 39.1328125 C-78.4884375 39.1328125 -77.8284375 39.1328125 -77.1484375 39.1328125 C-77.1484375 38.4728125 -77.1484375 37.8128125 -77.1484375 37.1328125 C-76.4884375 37.1328125 -75.8284375 37.1328125 -75.1484375 37.1328125 C-74.8803125 36.5346875 -74.6121875 35.9365625 -74.3359375 35.3203125 C-73.14926344 33.13433396 -72.05244637 31.71948656 -70.1484375 30.1328125 C-69.4884375 30.1328125 -68.8284375 30.1328125 -68.1484375 30.1328125 C-68.1484375 29.4728125 -68.1484375 28.8128125 -68.1484375 28.1328125 C-67.4884375 28.1328125 -66.8284375 28.1328125 -66.1484375 28.1328125 C-66.1484375 27.4728125 -66.1484375 26.8128125 -66.1484375 26.1328125 C-65.4884375 26.1328125 -64.8284375 26.1328125 -64.1484375 26.1328125 C-64.1484375 25.4728125 -64.1484375 24.8128125 -64.1484375 24.1328125 C-63.4884375 24.1328125 -62.8284375 24.1328125 -62.1484375 24.1328125 C-62.1484375 23.4728125 -62.1484375 22.8128125 -62.1484375 22.1328125 C-60.64453125 20.6171875 -60.64453125 20.6171875 -58.5859375 18.8828125 C-57.49732422 17.96048828 -57.49732422 17.96048828 -56.38671875 17.01953125 C-55.64808594 16.39691406 -54.90945313 15.77429688 -54.1484375 15.1328125 C-53.48199219 14.54113281 -52.81554687 13.94945312 -52.12890625 13.33984375 C-51.51660156 12.79714844 -50.90429688 12.25445312 -50.2734375 11.6953125 C-49.44199219 10.95474609 -49.44199219 10.95474609 -48.59375 10.19921875 C-47.1484375 9.1328125 -47.1484375 9.1328125 -45.1484375 9.1328125 C-45.1484375 8.4728125 -45.1484375 7.8128125 -45.1484375 7.1328125 C-42.97126525 6.12297516 -40.78639889 5.15213004 -38.5859375 4.1953125 C-37.70131836 3.77862305 -37.70131836 3.77862305 -36.79882812 3.35351562 C-25.79631884 -1.32960371 -11.71772426 -0.01832647 0 0 Z " fill="#8D55FC" transform="translate(323.1484375,178.8671875)"/>
<path d="M0 0 C1.32114304 0.0001133 1.32114304 0.0001133 2.66897583 0.00022888 C3.62109955 0.00539017 4.57322327 0.01055145 5.55419922 0.01586914 C7.01489334 0.01799156 7.01489334 0.01799156 8.50509644 0.02015686 C11.62305745 0.02576566 14.74094732 0.03831966 17.85888672 0.05102539 C19.96956277 0.05603926 22.08023994 0.06060236 24.19091797 0.06469727 C29.37193193 0.07573794 34.55290424 0.09248466 39.73388672 0.11352539 C39.73388672 1.10352539 39.73388672 2.09352539 39.73388672 3.11352539 C39.07388672 3.11352539 38.41388672 3.11352539 37.73388672 3.11352539 C37.73388672 3.77352539 37.73388672 4.43352539 37.73388672 5.11352539 C36.30029297 6.52368164 36.30029297 6.52368164 34.29638672 8.17602539 C30.14426884 11.68423194 26.37581439 15.46802944 22.61669922 19.39086914 C20.73388672 21.11352539 20.73388672 21.11352539 18.73388672 21.11352539 C18.73388672 21.77352539 18.73388672 22.43352539 18.73388672 23.11352539 C18.07388672 23.11352539 17.41388672 23.11352539 16.73388672 23.11352539 C16.73388672 23.77352539 16.73388672 24.43352539 16.73388672 25.11352539 C16.07388672 25.11352539 15.41388672 25.11352539 14.73388672 25.11352539 C14.73388672 25.77352539 14.73388672 26.43352539 14.73388672 27.11352539 C14.07388672 27.11352539 13.41388672 27.11352539 12.73388672 27.11352539 C12.73388672 27.77352539 12.73388672 28.43352539 12.73388672 29.11352539 C12.07388672 29.11352539 11.41388672 29.11352539 10.73388672 29.11352539 C10.73388672 29.77352539 10.73388672 30.43352539 10.73388672 31.11352539 C10.07388672 31.11352539 9.41388672 31.11352539 8.73388672 31.11352539 C8.73388672 31.77352539 8.73388672 32.43352539 8.73388672 33.11352539 C8.07388672 33.11352539 7.41388672 33.11352539 6.73388672 33.11352539 C6.73388672 33.77352539 6.73388672 34.43352539 6.73388672 35.11352539 C6.07388672 35.11352539 5.41388672 35.11352539 4.73388672 35.11352539 C4.73388672 35.77352539 4.73388672 36.43352539 4.73388672 37.11352539 C4.07388672 37.11352539 3.41388672 37.11352539 2.73388672 37.11352539 C2.73388672 37.77352539 2.73388672 38.43352539 2.73388672 39.11352539 C1.26513672 40.55883789 1.26513672 40.55883789 -0.76611328 42.23852539 C-8.45986164 48.38264106 -8.45986164 48.38264106 -14.26611328 56.11352539 C-14.92611328 56.11352539 -15.58611328 56.11352539 -16.26611328 56.11352539 C-16.26611328 56.77352539 -16.26611328 57.43352539 -16.26611328 58.11352539 C-16.92611328 58.11352539 -17.58611328 58.11352539 -18.26611328 58.11352539 C-18.26611328 58.77352539 -18.26611328 59.43352539 -18.26611328 60.11352539 C-18.92611328 60.11352539 -19.58611328 60.11352539 -20.26611328 60.11352539 C-20.26611328 60.77352539 -20.26611328 61.43352539 -20.26611328 62.11352539 C-20.92611328 62.11352539 -21.58611328 62.11352539 -22.26611328 62.11352539 C-22.26611328 62.77352539 -22.26611328 63.43352539 -22.26611328 64.11352539 C-22.92611328 64.11352539 -23.58611328 64.11352539 -24.26611328 64.11352539 C-24.26611328 64.77352539 -24.26611328 65.43352539 -24.26611328 66.11352539 C-24.92611328 66.11352539 -25.58611328 66.11352539 -26.26611328 66.11352539 C-26.26611328 66.77352539 -26.26611328 67.43352539 -26.26611328 68.11352539 C-26.92611328 68.11352539 -27.58611328 68.11352539 -28.26611328 68.11352539 C-28.26611328 68.77352539 -28.26611328 69.43352539 -28.26611328 70.11352539 C-28.92611328 70.11352539 -29.58611328 70.11352539 -30.26611328 70.11352539 C-30.92611328 71.43352539 -31.58611328 72.75352539 -32.26611328 74.11352539 C-32.92611328 74.11352539 -33.58611328 74.11352539 -34.26611328 74.11352539 C-34.26611328 74.77352539 -34.26611328 75.43352539 -34.26611328 76.11352539 C-34.92611328 76.11352539 -35.58611328 76.11352539 -36.26611328 76.11352539 C-36.26611328 76.77352539 -36.26611328 77.43352539 -36.26611328 78.11352539 C-36.92611328 78.11352539 -37.58611328 78.11352539 -38.26611328 78.11352539 C-38.26611328 78.77352539 -38.26611328 79.43352539 -38.26611328 80.11352539 C-38.92611328 80.11352539 -39.58611328 80.11352539 -40.26611328 80.11352539 C-40.26611328 80.77352539 -40.26611328 81.43352539 -40.26611328 82.11352539 C-41.73486328 83.55883789 -41.73486328 83.55883789 -43.76611328 85.23852539 C-51.45986164 91.38264106 -51.45986164 91.38264106 -57.26611328 99.11352539 C-57.92611328 99.11352539 -58.58611328 99.11352539 -59.26611328 99.11352539 C-59.26611328 99.77352539 -59.26611328 100.43352539 -59.26611328 101.11352539 C-59.92611328 101.11352539 -60.58611328 101.11352539 -61.26611328 101.11352539 C-61.26611328 101.77352539 -61.26611328 102.43352539 -61.26611328 103.11352539 C-61.92611328 103.11352539 -62.58611328 103.11352539 -63.26611328 103.11352539 C-63.26611328 103.77352539 -63.26611328 104.43352539 -63.26611328 105.11352539 C-63.92611328 105.11352539 -64.58611328 105.11352539 -65.26611328 105.11352539 C-65.26611328 105.77352539 -65.26611328 106.43352539 -65.26611328 107.11352539 C-65.92611328 107.11352539 -66.58611328 107.11352539 -67.26611328 107.11352539 C-67.26611328 107.77352539 -67.26611328 108.43352539 -67.26611328 109.11352539 C-67.92611328 109.11352539 -68.58611328 109.11352539 -69.26611328 109.11352539 C-69.26611328 109.77352539 -69.26611328 110.43352539 -69.26611328 111.11352539 C-69.92611328 111.11352539 -70.58611328 111.11352539 -71.26611328 111.11352539 C-71.26611328 111.77352539 -71.26611328 112.43352539 -71.26611328 113.11352539 C-71.92611328 113.11352539 -72.58611328 113.11352539 -73.26611328 113.11352539 C-73.26611328 113.77352539 -73.26611328 114.43352539 -73.26611328 115.11352539 C-74.80517578 116.62915039 -74.80517578 116.62915039 -76.89111328 118.36352539 C-79.60274406 120.65281367 -82.14429056 122.96953958 -84.57861328 125.55102539 C-87.26611328 128.11352539 -87.26611328 128.11352539 -90.26611328 128.11352539 C-90.31550658 122.04460848 -90.35182971 115.97580826 -90.37597656 109.90673828 C-90.38604163 107.84161339 -90.39969482 105.77650276 -90.41699219 103.71142578 C-90.44121821 100.74516275 -90.45259125 97.77908795 -90.46142578 94.81274414 C-90.47174835 93.88765549 -90.48207092 92.96256683 -90.4927063 92.00944519 C-90.49285736 91.14877945 -90.49300842 90.28811371 -90.49316406 89.40136719 C-90.49760529 88.64413864 -90.50204651 87.8869101 -90.50662231 87.10673523 C-90.26611328 85.11352539 -90.26611328 85.11352539 -88.26611328 82.11352539 C-87.60611328 82.11352539 -86.94611328 82.11352539 -86.26611328 82.11352539 C-86.26611328 81.45352539 -86.26611328 80.79352539 -86.26611328 80.11352539 C-85.60611328 80.11352539 -84.94611328 80.11352539 -84.26611328 80.11352539 C-84.26611328 79.45352539 -84.26611328 78.79352539 -84.26611328 78.11352539 C-83.60611328 78.11352539 -82.94611328 78.11352539 -82.26611328 78.11352539 C-82.01861328 77.53602539 -81.77111328 76.95852539 -81.51611328 76.36352539 C-80.0831134 73.7841256 -78.48186652 72.05230947 -76.26611328 70.11352539 C-75.60611328 70.11352539 -74.94611328 70.11352539 -74.26611328 70.11352539 C-74.26611328 69.45352539 -74.26611328 68.79352539 -74.26611328 68.11352539 C-72.91064453 66.78149414 -72.91064453 66.78149414 -71.07861328 65.30102539 C-67.96271709 62.71483155 -65.09778061 60.01425778 -62.26611328 57.11352539 C-61.58935547 56.44708008 -60.91259766 55.78063477 -60.21533203 55.09399414 C-59.12671875 54.02084961 -59.12671875 54.02084961 -58.01611328 52.92602539 C-57.33033203 52.2518457 -56.64455078 51.57766602 -55.93798828 50.88305664 C-54.19162217 49.20553544 -54.19162217 49.20553544 -53.26611328 47.11352539 C-52.60611328 47.11352539 -51.94611328 47.11352539 -51.26611328 47.11352539 C-51.26611328 46.45352539 -51.26611328 45.79352539 -51.26611328 45.11352539 C-49.82565308 43.69430542 -49.82565308 43.69430542 -47.81640625 42.03491211 C-43.12138124 38.03989467 -38.79483738 33.75195578 -34.46142578 29.37133789 C-33.65623505 28.56236053 -32.85104431 27.75338318 -32.02145386 26.91989136 C-29.47554792 24.36186663 -26.93293679 21.80060632 -24.39111328 19.23852539 C-21.02156261 15.84245277 -17.64876098 12.4496581 -14.27392578 9.05883789 C-13.50001495 8.27662872 -12.72610413 7.49441956 -11.92874146 6.68850708 C-11.21394623 5.97040863 -10.499151 5.25231018 -9.76269531 4.51245117 C-9.13396515 3.87848419 -8.50523499 3.24451721 -7.85745239 2.59133911 C-5.22763456 0.14913126 -3.48512938 -0.00995751 0 0 Z " fill="#8E56FC" transform="translate(235.26611328125,179.886474609375)"/>
<path d="M0 0 C3.55799167 0.17789958 5.34155163 1.96215029 7.75 4.4375 C8.67039063 5.36369141 8.67039063 5.36369141 9.609375 6.30859375 C11 8 11 8 11 10 C11.66 10 12.32 10 13 10 C13 10.66 13 11.32 13 12 C13.87398437 12.38671875 13.87398437 12.38671875 14.765625 12.78125 C17.1802903 14.09834017 18.81740177 15.55088384 20.75 17.5 C21.67039062 18.41265625 21.67039062 18.41265625 22.609375 19.34375 C24 21 24 21 24 23 C24.66 23 25.32 23 26 23 C26 23.66 26 24.32 26 25 C26.66 25 27.32 25 28 25 C28 25.66 28 26.32 28 27 C28.556875 27.226875 29.11375 27.45375 29.6875 27.6875 C32.66159588 29.37550036 34.72008865 31.46676517 37 34 C37 34.66 37 35.32 37 36 C37.66 36 38.32 36 39 36 C39 36.66 39 37.32 39 38 C39.66 38 40.32 38 41 38 C41 38.66 41 39.32 41 40 C41.66 40 42.32 40 43 40 C43 40.66 43 41.32 43 42 C43.66 42 44.32 42 45 42 C45 42.66 45 43.32 45 44 C45.66 44 46.32 44 47 44 C47 44.66 47 45.32 47 46 C47.66 46 48.32 46 49 46 C49 46.66 49 47.32 49 48 C49.66 48 50.32 48 51 48 C52.5859375 49.609375 52.5859375 49.609375 54.375 51.75 C56.33371653 54.06856425 58.23225426 56.22034379 60.4375 58.3125 C62 60 62 60 62 63 C47.48 63 32.96 63 18 63 C18 62.34 18 61.68 18 61 C17.34 61 16.68 61 16 61 C16 60.34 16 59.68 16 59 C15.34 59 14.68 59 14 59 C14 58.34 14 57.68 14 57 C13.34 57 12.68 57 12 57 C12 56.34 12 55.68 12 55 C10.515 54.505 10.515 54.505 9 54 C9 53.34 9 52.68 9 52 C8.34 52 7.68 52 7 52 C7 51.34 7 50.68 7 50 C6.34 50 5.68 50 5 50 C5 49.34 5 48.68 5 48 C4.34 48 3.68 48 3 48 C1.80078125 46.77734375 1.80078125 46.77734375 0.3125 44.9375 C-2.24178245 41.89850297 -4.91561733 39.06738925 -7.76171875 36.3046875 C-8.43565674 35.64863525 -9.10959473 34.99258301 -9.80395508 34.31665039 C-11.17223679 32.99256403 -12.54828262 31.67644886 -13.93237305 30.36889648 C-14.57086182 29.74829346 -15.20935059 29.12769043 -15.8671875 28.48828125 C-16.73512939 27.66130737 -16.73512939 27.66130737 -17.62060547 26.81762695 C-19.39794492 24.47562834 -19.90211205 22.94144804 -20 20 C-18.60058594 17.91943359 -18.60058594 17.91943359 -16.484375 15.8984375 C-15.72769531 15.16109375 -14.97101563 14.42375 -14.19140625 13.6640625 C-13.38574219 12.90867187 -12.58007812 12.15328125 -11.75 11.375 C-10.95980469 10.611875 -10.16960937 9.84875 -9.35546875 9.0625 C-7.88262955 7.64199519 -6.40372627 6.22773289 -4.91699219 4.82177734 C-3.70126706 3.66643591 -2.51400948 2.47974279 -1.36914062 1.25415039 C-0.91732422 0.84028076 -0.46550781 0.42641113 0 0 Z " fill="#8D56FB" transform="translate(211,251)"/>
<path d="M0 0 C0.24918722 5.2283312 0.42953755 10.4531366 0.54931641 15.68603516 C0.59928547 17.46138771 0.66729273 19.2363354 0.75439453 21.01025391 C1.49964142 36.59029777 1.49964142 36.59029777 -2.23535156 41.38769531 C-4.70550326 43.83320709 -7.22146184 45.92164147 -10 48 C-10.33 48.66 -10.66 49.32 -11 50 C-11.66 50 -12.32 50 -13 50 C-13 50.66 -13 51.32 -13 52 C-13.66 52 -14.32 52 -15 52 C-15 52.66 -15 53.32 -15 54 C-16.22265625 55.19921875 -16.22265625 55.19921875 -18.0625 56.6875 C-25.12877206 62.66763621 -31.500908 69.4184 -38 76 C-38.66 75.67 -39.32 75.34 -40 75 C-40 50.25 -40 25.5 -40 0 C-2.58064516 -1.29032258 -2.58064516 -1.29032258 0 0 Z " fill="#8C53FC" transform="translate(185,180)"/>
<path d="M0 0 C0.17357152 5.30175166 0.30030928 10.60183656 0.38452148 15.90576172 C0.41963692 17.70813821 0.46734303 19.51031652 0.52807617 21.31201172 C0.6134005 23.90902609 0.65277328 26.50339815 0.68359375 29.1015625 C0.71972275 29.9017984 0.75585175 30.7020343 0.79307556 31.52651978 C0.79551752 35.03824093 0.72564724 37.14731517 -1.60494995 39.88592529 C-3.34301066 41.3840128 -5.08890802 42.73246525 -7 44 C-7.33 43.01 -7.66 42.02 -8 41 C-7.01 40.01 -6.02 39.02 -5 38 C-4.01 38.495 -4.01 38.495 -3 39 C-2.9753499 33.89136104 -2.95716393 28.78275641 -2.94506836 23.67407227 C-2.94002796 21.93480832 -2.9331957 20.19554864 -2.92456055 18.45629883 C-2.91248208 15.96174063 -2.90676892 13.46723827 -2.90234375 10.97265625 C-2.89718246 10.19036148 -2.89202118 9.40806671 -2.88670349 8.60206604 C-2.88650774 6.73432886 -2.93800306 4.86670796 -3 3 C-11.49836586 -5.49836586 -26.98639826 1.34324576 -39 1 C-39 24.43 -39 47.86 -39 72 C-38.505 71.01 -38.505 71.01 -38 70 C-36.68 70 -35.36 70 -34 70 C-35.36983503 73.16115776 -35.9890638 73.9927092 -39 76 C-40.66165207 74.33834793 -40.11959725 72.3348397 -40.12442017 70.11598206 C-40.12082489 69.41827194 -40.11722961 68.72056183 -40.11352539 68.00170898 C-40.11367142 67.27004517 -40.11381744 66.53838135 -40.1139679 65.7845459 C-40.11326867 63.35503216 -40.10547585 60.92559417 -40.09765625 58.49609375 C-40.0957921 56.81600486 -40.09436819 55.13591543 -40.09336853 53.45582581 C-40.08954307 49.02526357 -40.07971256 44.5947339 -40.06866455 40.16418457 C-40.05845103 35.64657024 -40.05387104 31.12895066 -40.04882812 26.61132812 C-40.03809031 17.74087107 -40.02101356 8.87043824 -40 0 C-36.03482156 -0.14448174 -32.06957169 -0.28680456 -28.10424805 -0.42724609 C-26.10266212 -0.4985689 -24.10113491 -0.57153328 -22.09960938 -0.64453125 C-2.66011029 -1.33005515 -2.66011029 -1.33005515 0 0 Z " fill="#A384E2" transform="translate(185,180)"/>
<path d="M0 0 C1.39189674 -0.0006766 2.78379336 -0.00164955 4.1756897 -0.00289917 C7.06131134 -0.00435651 9.9469016 -0.00228391 12.83251953 0.00244141 C16.50699514 0.00816999 20.18139817 0.00482749 23.8558712 -0.00113106 C26.71795184 -0.00476273 29.58001554 -0.0035867 32.44209671 -0.00100327 C34.44767556 -0.00002551 36.45325511 -0.00302648 38.45883179 -0.00613403 C45.00897571 0.01062181 51.35963782 0.24687021 57.8515625 1.1328125 C56.4765625 3.6328125 56.4765625 3.6328125 54.8515625 6.1328125 C54.1915625 6.1328125 53.5315625 6.1328125 52.8515625 6.1328125 C52.8515625 5.1428125 52.8515625 4.1528125 52.8515625 3.1328125 C44.22725706 3.10948069 35.60296515 3.09179246 26.97863579 3.08100033 C22.97256213 3.07581657 18.96651031 3.06880246 14.96044922 3.05737305 C11.08303747 3.04638189 7.20564651 3.04050188 3.32822037 3.03793526 C1.86051227 3.03610987 0.39280511 3.03254665 -1.07489395 3.02708244 C-18.65898509 2.38134943 -18.65898509 2.38134943 -35.1484375 7.1328125 C-38.5234375 6.8203125 -38.5234375 6.8203125 -41.1484375 6.1328125 C-29.3819044 -1.7115429 -13.58482709 -0.02124661 0 0 Z " fill="#B090EC" transform="translate(323.1484375,178.8671875)"/>
<path d="M0 0 C0.495 0.99 0.495 0.99 1 2 C-0.64259994 6.06327354 -2.16576998 8.77367289 -6 11 C-6.66 11 -7.32 11 -8 11 C-8.33 12.32 -8.66 13.64 -9 15 C-9.639375 15.103125 -10.27875 15.20625 -10.9375 15.3125 C-11.618125 15.539375 -12.29875 15.76625 -13 16 C-13.33 16.99 -13.66 17.98 -14 19 C-14.66 19 -15.32 19 -16 19 C-16 19.99 -16 20.98 -16 22 C-17.093125 22.556875 -18.18625 23.11375 -19.3125 23.6875 C-22.75349715 25.6390074 -24.08416744 27.51666808 -26 31 C-28.6875 33.3125 -28.6875 33.3125 -31 35 C-31.495 33.515 -31.495 33.515 -32 32 C-31.67 31.34 -31.34 30.68 -31 30 C-30.34 30 -29.68 30 -29 30 C-29 29.34 -29 28.68 -29 28 C-27.63671875 26.65795898 -27.63671875 26.65795898 -25.6875 25.05859375 C-20.16015051 20.35864071 -15.10357873 15.21244309 -10 10.0625 C-9.02497614 9.0824469 -8.0497172 8.1026276 -7.07421875 7.12304688 C-4.71383382 4.75097687 -2.35583095 2.3765914 0 0 Z " fill="#9D78EE" transform="translate(213,197)"/>
<path d="M0 0 C0.17357152 5.30175166 0.30030928 10.60183656 0.38452148 15.90576172 C0.41963692 17.70813821 0.46734303 19.51031652 0.52807617 21.31201172 C0.6134005 23.90902609 0.65277328 26.50339815 0.68359375 29.1015625 C0.71972275 29.9017984 0.75585175 30.7020343 0.79307556 31.52651978 C0.79551752 35.03824093 0.72564724 37.14731517 -1.60494995 39.88592529 C-3.34301066 41.3840128 -5.08890802 42.73246525 -7 44 C-7.495 42.515 -7.495 42.515 -8 41 C-7.01 40.01 -6.02 39.02 -5 38 C-4.34 38.33 -3.68 38.66 -3 39 C-2.97531916 33.90967159 -2.95714918 28.81937785 -2.94506836 23.72900391 C-2.94003318 21.99657586 -2.93320468 20.26415208 -2.92456055 18.53173828 C-2.91245935 16.04458567 -2.90676362 13.55748913 -2.90234375 11.0703125 C-2.89718246 10.29317902 -2.89202118 9.51604553 -2.88670349 8.71536255 C-2.79671948 4.72829094 -2.79671948 4.72829094 -4 1 C-2 0 -2 0 0 0 Z " fill="#8C65DE" transform="translate(185,180)"/>
<path d="M0 0 C0.99 0.66 1.98 1.32 3 2 C3 2.99 3 3.98 3 5 C-11.52 5 -26.04 5 -41 5 C-41 4.34 -41 3.68 -41 3 C-27.47 2.67 -13.94 2.34 0 2 C0 1.34 0 0.68 0 0 Z " fill="#C2A5EA" transform="translate(270,309)"/>
<path d="M0 0 C2.9375 0.75 2.9375 0.75 6 2 C6.875 4.125 6.875 4.125 7 6 C8.65 6.33 10.3 6.66 12 7 C12 7.66 12 8.32 12 9 C12.56203125 8.83628906 13.1240625 8.67257812 13.703125 8.50390625 C16.13059056 7.97135003 18.26889681 7.90101319 20.75 7.9375 C21.54921875 7.94652344 22.3484375 7.95554687 23.171875 7.96484375 C23.77515625 7.97644531 24.3784375 7.98804688 25 8 C25 8.66 25 9.32 25 10 C32.26 10 39.52 10 47 10 C47 10.33 47 10.66 47 11 C41.91409381 11.24927153 36.83181719 11.42957125 31.74121094 11.54931641 C30.0143434 11.59927245 28.28789168 11.66727014 26.5625 11.75439453 C11.45344297 12.49760625 11.45344297 12.49760625 6.57324219 8.76464844 C4.08110531 6.29712526 1.94931223 3.9117184 0 1 C0 0.67 0 0.34 0 0 Z " fill="#A37CF0" transform="translate(273,303)"/>
<path d="M0 0 C14.52 0 29.04 0 44 0 C44 0.99 44 1.98 44 3 C43.34 3 42.68 3 42 3 C42 3.66 42 4.32 42 5 C40.3203125 6.69140625 40.3203125 6.69140625 38.125 8.5625 C37.40570313 9.18253906 36.68640625 9.80257812 35.9453125 10.44140625 C34 12 34 12 32 13 C31.67 11.35 31.34 9.7 31 8 C33.31 7.34 35.62 6.68 38 6 C37.505 4.02 37.505 4.02 37 2 C18.685 1.505 18.685 1.505 0 1 C0 0.67 0 0.34 0 0 Z " fill="#AF8EF3" transform="translate(231,180)"/>
<path d="M0 0 C1.32 0.33 2.64 0.66 4 1 C3.67 1.66 3.34 2.32 3 3 C3.66 3 4.32 3 5 3 C5.33 3.66 5.66 4.32 6 5 C18.87 5 31.74 5 45 5 C43.68 4.01 42.36 3.02 41 2 C41.33 1.34 41.66 0.68 42 0 C43.875 0.6875 43.875 0.6875 46 2 C46.66 3.65 47.32 5.3 48 7 C33.48 7 18.96 7 4 7 C4 6.34 4 5.68 4 5 C3.34 5 2.68 5 2 5 C2 4.34 2 3.68 2 3 C1.34 3 0.68 3 0 3 C0 2.01 0 1.02 0 0 Z " fill="#8959EF" transform="translate(223,305)"/>
<path d="M0 0 C17.16 0 34.32 0 52 0 C52 0.33 52 0.66 52 1 C35.83 1 19.66 1 3 1 C3 1.66 3 2.32 3 3 C3.61875 3.226875 4.2375 3.45375 4.875 3.6875 C7.61410209 5.37929835 8.05024472 6.99244161 9 10 C8.34 10 7.68 10 7 10 C7 9.34 7 8.68 7 8 C6.34 8 5.68 8 5 8 C0 2.52380952 0 2.52380952 0 0 Z " fill="#8459E4" transform="translate(257,285)"/>
<path d="M0 0 C0.99 0.33 1.98 0.66 3 1 C3.46555329 5.65553289 3.82636291 9.63399746 0.875 13.5 C-4.54826757 18.21588484 -11.15363185 17.12177335 -18 17 C-18 16.67 -18 16.34 -18 16 C-17.443125 15.90203125 -16.88625 15.8040625 -16.3125 15.703125 C-10.81390221 14.62569705 -5.69247433 13.16207503 -1 10 C1.56687367 6.1496895 0.83288724 4.41430237 0 0 Z " fill="#A178EC" transform="translate(330,267)"/>
<path d="M0 0 C0.83920486 0.00424484 1.67840973 0.00848969 2.54304504 0.01286316 C5.2230337 0.02965411 7.90226995 0.06730645 10.58203125 0.10546875 C12.39907768 0.12051508 14.2161359 0.13420357 16.03320312 0.14648438 C20.48726901 0.17955893 24.94077257 0.23134362 29.39453125 0.29296875 C29.06453125 0.95296875 28.73453125 1.61296875 28.39453125 2.29296875 C27.54745605 2.28773193 26.70038086 2.28249512 25.82763672 2.27709961 C22.66308852 2.2599834 19.49856405 2.24748249 16.33398438 2.23803711 C14.96841655 2.23303089 13.60285401 2.22622393 12.23730469 2.2175293 C10.26630007 2.20530044 8.29525515 2.20024009 6.32421875 2.1953125 C5.14069824 2.19007568 3.95717773 2.18483887 2.73779297 2.17944336 C-3.30143819 2.24035185 -3.30143819 2.24035185 -8.48046875 4.85546875 C-8.85171875 5.32984375 -9.22296875 5.80421875 -9.60546875 6.29296875 C-9.60546875 5.63296875 -9.60546875 4.97296875 -9.60546875 4.29296875 C-10.26546875 3.96296875 -10.92546875 3.63296875 -11.60546875 3.29296875 C-8.28438904 -0.60243936 -4.81783009 -0.09145125 0 0 Z " fill="#8858EC" transform="translate(237.60546875,180.70703125)"/>
<path d="M0 0 C2.475 0.495 2.475 0.495 5 1 C3.54200178 3.91599643 1.73446234 4.02313412 -1.3125 5.0625 C-7.52866178 7.06987997 -13.49446037 7.76930711 -20 8 C-16.74469192 6.31573191 -13.49529294 5.11213866 -10 4 C-10 3.34 -10 2.68 -10 2 C-6.7 1.67 -3.4 1.34 0 1 C0 0.67 0 0.34 0 0 Z " fill="#A07AF3" transform="translate(340,305)"/>
<path d="M0 0 C0.33 0.66 0.66 1.32 1 2 C0.05898438 2.03738281 -0.88203125 2.07476562 -1.8515625 2.11328125 C-3.71941406 2.21189453 -3.71941406 2.21189453 -5.625 2.3125 C-7.46964844 2.39951172 -7.46964844 2.39951172 -9.3515625 2.48828125 C-13.15729666 3.02206195 -15.62582481 4.2362266 -19 6 C-22.375 5.6875 -22.375 5.6875 -25 5 C-16.82512185 -0.44991877 -9.59964657 -0.36403154 0 0 Z " fill="#A179F1" transform="translate(307,180)"/>
<path d="M0 0 C0.66 0 1.32 0 2 0 C0.76334077 4.94663693 -0.69457215 7.23222495 -5 10 C-7.3125 10.75 -7.3125 10.75 -9 11 C-9.33 12.32 -9.66 13.64 -10 15 C-10.99 15 -11.98 15 -13 15 C-13 14.34 -13 13.68 -13 13 C-12.34 13 -11.68 13 -11 13 C-10.731875 12.401875 -10.46375 11.80375 -10.1875 11.1875 C-9.00082594 9.00152146 -7.90400887 7.58667406 -6 6 C-5.34 6 -4.68 6 -4 6 C-4 5.34 -4 4.68 -4 4 C-3.34 4 -2.68 4 -2 4 C-2 3.34 -2 2.68 -2 2 C-1.34 2 -0.68 2 0 2 C0 1.34 0 0.68 0 0 Z " fill="#A67FF1" transform="translate(259,203)"/>
<path d="M0 0 C1.79824219 0.00966797 1.79824219 0.00966797 3.6328125 0.01953125 C5.4890625 0.04466797 5.4890625 0.04466797 7.3828125 0.0703125 C8.64351563 0.07933594 9.90421875 0.08835938 11.203125 0.09765625 C14.3048829 0.12115442 17.40624902 0.15400916 20.5078125 0.1953125 C20.5078125 0.5253125 20.5078125 0.8553125 20.5078125 1.1953125 C19.8686792 1.2046582 19.2295459 1.21400391 18.57104492 1.22363281 C3.07348666 1.15347399 3.07348666 1.15347399 -11.6015625 5.453125 C-13.4921875 6.1953125 -13.4921875 6.1953125 -16.4921875 5.1953125 C-15.1721875 4.8653125 -13.8521875 4.5353125 -12.4921875 4.1953125 C-12.4921875 3.5353125 -12.4921875 2.8753125 -12.4921875 2.1953125 C-8.16398277 0.54728725 -4.62233166 -0.04402221 0 0 Z " fill="#966FE7" transform="translate(301.4921875,206.8046875)"/>
<path d="M0 0 C0 3.61207397 -1.1151038 4.98416608 -3 8 C-3.33 8.99 -3.66 9.98 -4 11 C-4.804375 11.12375 -5.60875 11.2475 -6.4375 11.375 C-7.283125 11.58125 -8.12875 11.7875 -9 12 C-9.33 12.66 -9.66 13.32 -10 14 C-11.32 13.67 -12.64 13.34 -14 13 C-13.0479279 11.99403703 -12.08812654 10.99538437 -11.125 10 C-10.32449219 9.1646875 -10.32449219 9.1646875 -9.5078125 8.3125 C-8 7 -8 7 -6 7 C-6 6.34 -6 5.68 -6 5 C-4.04072937 3.2856382 -2.04119788 1.61594832 0 0 Z " fill="#A787EF" transform="translate(167,243)"/>
<path d="M0 0 C2.125 0.1875 2.125 0.1875 4 1 C4.33 1.66 4.66 2.32 5 3 C2.03 2.505 2.03 2.505 -1 2 C-1 2.99 -1 3.98 -1 5 C-1.99 5.495 -1.99 5.495 -3 6 C-3.474375 6.825 -3.94875 7.65 -4.4375 8.5 C-6 11 -6 11 -9 12 C-10.68538601 13.99665314 -10.68538601 13.99665314 -12 16 C-12.99 15.67 -13.98 15.34 -15 15 C-11 11 -7 7 -3 3 C-2.23296753 2.16142456 -2.23296753 2.16142456 -1.45043945 1.3059082 C-0.97179443 0.8749585 -0.49314941 0.44400879 0 0 Z " fill="#A988EE" transform="translate(211,251)"/>
<path d="M0 0 C-1.17138167 3.51414502 -1.84558112 4.17375749 -5 6 C-8.75 6.6875 -8.75 6.6875 -12 7 C-11.67 6.01 -11.34 5.02 -11 4 C-10.34 4 -9.68 4 -9 4 C-9 3.34 -9 2.68 -9 2 C-8.34 2 -7.68 2 -7 2 C-7 1.34 -7 0.68 -7 0 C-4.3333581 -1.33332095 -2.83319697 -0.67102033 0 0 Z " fill="#8955F4" transform="translate(158,258)"/>
<path d="M0 0 C1.98 0 3.96 0 6 0 C5.45550236 3.79472973 3.96207612 5.27031268 1.0625 7.6875 C0.35222656 8.28949219 -0.35804688 8.89148438 -1.08984375 9.51171875 C-3 11 -3 11 -5 12 C-5.33 10.35 -5.66 8.7 -6 7 C-3.69 6.34 -1.38 5.68 1 5 C0.67 3.35 0.34 1.7 0 0 Z " fill="#946EE9" transform="translate(268,181)"/>
<path d="M0 0 C0.33 0 0.66 0 1 0 C1 11.22 1 22.44 1 34 C1.99 34.33 2.98 34.66 4 35 C2.68 35.66 1.36 36.32 0 37 C0 24.79 0 12.58 0 0 Z " fill="#875DE6" transform="translate(146,271)"/>
<path d="M0 0 C1 2 1 2 0.6875 4.375 C0.73123118 7.29724333 0.73123118 7.29724333 3.6875 9.25 C6.61282204 10.79545315 8.74883293 11.61750976 12 12 C12 12.33 12 12.66 12 13 C3.1409396 13.29530201 3.1409396 13.29530201 0 11 C-2.30163882 7.54754176 -2.34490322 6.05261287 -2 2 C-1.34 1.34 -0.68 0.68 0 0 Z " fill="#A584ED" transform="translate(283,215)"/>
<path d="M0 0 C0.66 0 1.32 0 2 0 C2.2475 0.61875 2.495 1.2375 2.75 1.875 C4.20628639 4.35068687 5.37812506 4.95125002 8 6 C8 7.32 8 8.64 8 10 C8.99 10.33 9.98 10.66 11 11 C10.34 11.66 9.68 12.32 9 13 C5.7 9.7 2.4 6.4 -1 3 C-0.67 2.01 -0.34 1.02 0 0 Z " fill="#A07BEF" transform="translate(197,277)"/>
<path d="M0 0 C0.33 1.32 0.66 2.64 1 4 C0.44570312 4.39832031 -0.10859375 4.79664063 -0.6796875 5.20703125 C-1.40414062 5.73683594 -2.12859375 6.26664063 -2.875 6.8125 C-3.59429687 7.33457031 -4.31359375 7.85664063 -5.0546875 8.39453125 C-7.23028655 10.03272777 -7.23028655 10.03272777 -9 13 C-9.99 12.67 -10.98 12.34 -12 12 C-8 8 -4 4 0 0 Z " fill="#A07EEB" transform="translate(180,230)"/>
<path d="M0 0 C1.258125 0.12375 2.51625 0.2475 3.8125 0.375 C4.87404297 0.47941406 4.87404297 0.47941406 5.95703125 0.5859375 C8 1 8 1 11 3 C11 3.66 11 4.32 11 5 C7.37 4.34 3.74 3.68 0 3 C0 2.01 0 1.02 0 0 Z " fill="#9A72EE" transform="translate(348,241)"/>
<path d="M0 0 C-1.08203125 1.48828125 -1.08203125 1.48828125 -3 3 C-6.13671875 3.29296875 -6.13671875 3.29296875 -9.6875 3.1875 C-11.45673828 3.14689453 -11.45673828 3.14689453 -13.26171875 3.10546875 C-14.61716797 3.05326172 -14.61716797 3.05326172 -16 3 C-16 2.67 -16 2.34 -16 2 C-15.38511719 1.86722656 -14.77023437 1.73445313 -14.13671875 1.59765625 C-13.32847656 1.42105469 -12.52023437 1.24445313 -11.6875 1.0625 C-10.88699219 0.88847656 -10.08648437 0.71445312 -9.26171875 0.53515625 C-3.02820122 -0.93978659 -3.02820122 -0.93978659 0 0 Z " fill="#B694EF" transform="translate(328,281)"/>
<path d="M0 0 C0.66 0 1.32 0 2 0 C2.33 3.3 2.66 6.6 3 10 C0.4375 7.75 0.4375 7.75 -2 5 C-1.87165745 2.68983403 -1.63394255 1.63394255 0 0 Z " fill="#A685E9" transform="translate(193,269)"/>
<path d="M0 0 C5.77807024 -0.2358396 10.51324804 0.13216954 16 2 C16 2.66 16 3.32 16 4 C10.58201328 3.30834212 5.3177215 2.24200752 0 1 C0 0.67 0 0.34 0 0 Z " fill="#B491EE" transform="translate(313,261)"/>
<path d="M0 0 C1.48484412 0.39595843 2.9628831 0.81750706 4.4375 1.25 C5.26121094 1.48203125 6.08492187 1.7140625 6.93359375 1.953125 C9 3 9 3 9.78515625 5.109375 C9.85605469 5.73328125 9.92695313 6.3571875 10 7 C5.61308455 6.49381745 3.15608721 3.86917019 0 1 C0 0.67 0 0.34 0 0 Z " fill="#A482EF" transform="translate(245,241)"/>
<path d="M0 0 C1.32 0.33 2.64 0.66 4 1 C1.10652793 4.12807791 -0.53634551 5.8293407 -4.84765625 6.33203125 C-7.58028129 6.31440141 -10.27641199 6.21808089 -13 6 C-13 5.67 -13 5.34 -13 5 C-9.7 5 -6.4 5 -3 5 C-2.67 4.01 -2.34 3.02 -2 2 C-1.34 2 -0.68 2 0 2 C0 1.34 0 0.68 0 0 Z " fill="#9F7EE9" transform="translate(357,202)"/>
<path d="M0 0 C0.99 0.66 1.98 1.32 3 2 C3 2.99 3 3.98 3 5 C2.34 5 1.68 5 1 5 C1 5.66 1 6.32 1 7 C0.34 7 -0.32 7 -1 7 C-1 7.66 -1 8.32 -1 9 C-1.66 9 -2.32 9 -3 9 C-3 9.66 -3 10.32 -3 11 C-3.66 10.67 -4.32 10.34 -5 10 C-3.625 7.5 -3.625 7.5 -2 5 C-1.34 5 -0.68 5 0 5 C-0.33 4.01 -0.66 3.02 -1 2 C-0.67 1.34 -0.34 0.68 0 0 Z " fill="#A680F0" transform="translate(249,200)"/>
<path d="M0 0 C1.98 0 3.96 0 6 0 C2.7129243 3.81300782 -0.39727838 5.22972246 -5 7 C-5.33 6.34 -5.66 5.68 -6 5 C-5.01 4.67 -4.02 4.34 -3 4 C-3 3.34 -3 2.68 -3 2 C-2.01 2 -1.02 2 0 2 C0 1.34 0 0.68 0 0 Z " fill="#A886EF" transform="translate(351,299)"/>
<path d="M0 0 C0.66 0 1.32 0 2 0 C1.51675181 5.15464734 -1.18610761 8.81550319 -4 13 C-5.24546405 10.50907189 -4.7767578 9.58919267 -4 7 C-3.34 7 -2.68 7 -2 7 C-2 5.68 -2 4.36 -2 3 C-1.34 3 -0.68 3 0 3 C0 2.01 0 1.02 0 0 Z " fill="#A585EC" transform="translate(367,281)"/>
<path d="M0 0 C-1 2 -1 2 -3.21484375 2.88671875 C-4.11332031 3.15097656 -5.01179688 3.41523438 -5.9375 3.6875 C-6.83339844 3.95949219 -7.72929687 4.23148437 -8.65234375 4.51171875 C-11 5 -11 5 -13 4 C-11.68 3.67 -10.36 3.34 -9 3 C-9 2.34 -9 1.68 -9 1 C-5.64919071 -1.10976881 -3.77897651 -1.0497157 0 0 Z " fill="#A683F0" transform="translate(345,306)"/>
<path d="M0 0 C2.31 0.33 4.62 0.66 7 1 C7.33 2.98 7.66 4.96 8 7 C7.01 7 6.02 7 5 7 C5 6.34 5 5.68 5 5 C4.34 5 3.68 5 3 5 C3 4.34 3 3.68 3 3 C2.34 3 1.68 3 1 3 C0.67 2.01 0.34 1.02 0 0 Z " fill="#A07CF3" transform="translate(213,296)"/>
<path d="M0 0 C0.99 0 1.98 0 3 0 C3 0.99 3 1.98 3 3 C3.61875 3.226875 4.2375 3.45375 4.875 3.6875 C7.61410209 5.37929835 8.05024472 6.99244161 9 10 C8.34 10 7.68 10 7 10 C7 9.34 7 8.68 7 8 C6.34 8 5.68 8 5 8 C0 2.52380952 0 2.52380952 0 0 Z " fill="#A17FE7" transform="translate(257,285)"/>
<path d="M0 0 C-0.33 0.99 -0.66 1.98 -1 3 C-5.68965706 4.11658501 -8.53763531 3.80619523 -13 2 C-13 1.67 -13 1.34 -13 1 C-11.20843648 0.83222817 -9.4167455 0.66581706 -7.625 0.5 C-6.62726563 0.4071875 -5.62953125 0.314375 -4.6015625 0.21875 C-2 0 -2 0 0 0 Z " fill="#9E78EF" transform="translate(275,250)"/>
<path d="M0 0 C7.625 1.75 7.625 1.75 11 4 C7.90902264 4.99352844 6.08374821 4.96367132 3 4 C2.2575 3.814375 1.515 3.62875 0.75 3.4375 C0.1725 3.293125 -0.405 3.14875 -1 3 C-0.67 2.01 -0.34 1.02 0 0 Z " fill="#AA86F2" transform="translate(336,235)"/>
<path d="M0 0 C0.33 0.99 0.66 1.98 1 3 C-0.6875 5.6875 -0.6875 5.6875 -3 8 C-4.32 8 -5.64 8 -7 8 C-7 7.34 -7 6.68 -7 6 C-5.46875 4.4921875 -5.46875 4.4921875 -3.5 2.875 C-2.8503125 2.33617187 -2.200625 1.79734375 -1.53125 1.2421875 C-1.0259375 0.83226562 -0.520625 0.42234375 0 0 Z " fill="#9970EE" transform="translate(268,195)"/>
<path d="M0 0 C0.99 0.33 1.98 0.66 3 1 C1.02 3.31 -0.96 5.62 -3 8 C-3.66 7.01 -4.32 6.02 -5 5 C-4.67 4.34 -4.34 3.68 -4 3 C-3.34 3 -2.68 3 -2 3 C-2 2.34 -2 1.68 -2 1 C-1.34 0.67 -0.68 0.34 0 0 Z " fill="#A481F0" transform="translate(186,224)"/>
<path d="M0 0 C2.9375 0.75 2.9375 0.75 6 2 C6.75 4.0625 6.75 4.0625 7 6 C7.66 6.33 8.32 6.66 9 7 C6 7 6 7 4.39453125 5.46875 C3.87246094 4.8190625 3.35039062 4.169375 2.8125 3.5 C2.28269531 2.8503125 1.75289063 2.200625 1.20703125 1.53125 C0.80871094 1.0259375 0.41039062 0.520625 0 0 Z " fill="#B38AEA" transform="translate(273,303)"/>
<path d="M0 0 C1.45792884 -0.05399736 2.91642712 -0.09279177 4.375 -0.125 C5.18710937 -0.14820313 5.99921875 -0.17140625 6.8359375 -0.1953125 C9 0 9 0 11 2 C8.00468461 2.99843846 6.82744268 3.00732761 3.8125 2.5625 C2.554375 2.376875 1.29625 2.19125 0 2 C0 1.34 0 0.68 0 0 Z " fill="#9B74E9" transform="translate(321,233)"/>
<path d="M0 0 C2.97 0.495 2.97 0.495 6 1 C4.35 2.98 2.7 4.96 1 7 C0.31292445 4.50935112 0 2.62113708 0 0 Z " fill="#9970F2" transform="translate(150,298)"/>
<path d="M0 0 C0.66 0.33 1.32 0.66 2 1 C1.01 2.98 0.02 4.96 -1 7 C-2.32 6.67 -3.64 6.34 -5 6 C-4.67 5.34 -4.34 4.68 -4 4 C-3.34 4 -2.68 4 -2 4 C-2 3.34 -2 2.68 -2 2 C-1.34 2 -0.68 2 0 2 C0 1.34 0 0.68 0 0 Z " fill="#A382EE" transform="translate(151,258)"/>
<path d="M0 0 C0.99 0.33 1.98 0.66 3 1 C3 1.66 3 2.32 3 3 C1.46875 4.2890625 1.46875 4.2890625 -0.5 5.625 C-1.1496875 6.07101563 -1.799375 6.51703125 -2.46875 6.9765625 C-2.9740625 7.31429687 -3.479375 7.65203125 -4 8 C-3.6875 6.0625 -3.6875 6.0625 -3 4 C-2.01 3.67 -1.02 3.34 0 3 C0 2.01 0 1.02 0 0 Z " fill="#9D7CE8" transform="translate(167,231)"/>
<path d="M0 0 C0.99 0.66 1.98 1.32 3 2 C3 2.99 3 3.98 3 5 C-0.63 4.67 -4.26 4.34 -8 4 C-8 3.67 -8 3.34 -8 3 C-5.36 2.67 -2.72 2.34 0 2 C0 1.34 0 0.68 0 0 Z " fill="#9171D6" transform="translate(270,309)"/>
<path d="M0 0 C1.32 0.33 2.64 0.66 4 1 C3.67 1.66 3.34 2.32 3 3 C3.66 3 4.32 3 5 3 C5.33 4.32 5.66 5.64 6 7 C5.34 7 4.68 7 4 7 C4 6.34 4 5.68 4 5 C3.34 5 2.68 5 2 5 C2 4.34 2 3.68 2 3 C1.34 3 0.68 3 0 3 C0 2.01 0 1.02 0 0 Z " fill="#9A74EB" transform="translate(223,305)"/>
<path d="M0 0 C1.32 0 2.64 0 4 0 C2.63016497 3.16115776 2.0109362 3.9927092 -1 6 C-1.625 4.125 -1.625 4.125 -2 2 C-1.34 1.34 -0.68 0.68 0 0 Z " fill="#A488E3" transform="translate(147,250)"/>
<path d="M0 0 C0.99 0.33 1.98 0.66 3 1 C1.63016497 4.16115776 1.0109362 4.9927092 -2 7 C-2.125 4.625 -2.125 4.625 -2 2 C-1.34 1.34 -0.68 0.68 0 0 Z " fill="#9974ED" transform="translate(156,241)"/>
<path d="M0 0 C0.66 0.66 1.32 1.32 2 2 C-0.97 4.475 -0.97 4.475 -4 7 C-4.33 6.01 -4.66 5.02 -5 4 C-4.01 3.01 -3.02 2.02 -2 1 C-1.34 1.33 -0.68 1.66 0 2 C0 1.34 0 0.68 0 0 Z " fill="#A079EC" transform="translate(182,217)"/>
<path d="M0 0 C-1.36983503 3.16115776 -1.9890638 3.9927092 -5 6 C-5.33 4.35 -5.66 2.7 -6 1 C-3.92446352 0.4465236 -2.15634036 0 0 0 Z " fill="#A884EC" transform="translate(268,187)"/>
<path d="M0 0 C1.98 0.66 3.96 1.32 6 2 C5.01 3.485 5.01 3.485 4 5 C2.68 4.34 1.36 3.68 0 3 C0 2.01 0 1.02 0 0 Z " fill="#9068E7" transform="translate(271,299)"/>
<path d="M0 0 C0.66 0.33 1.32 0.66 2 1 C0.625 3 0.625 3 -1 5 C-1.66 5 -2.32 5 -3 5 C-3 5.66 -3 6.32 -3 7 C-3.66 7 -4.32 7 -5 7 C-5 6.01 -5 5.02 -5 4 C-4.34 4 -3.68 4 -3 4 C-2.67 3.01 -2.34 2.02 -2 1 C-1.34 0.67 -0.68 0.34 0 0 Z " fill="#A888E7" transform="translate(179,274)"/>
<path d="M0 0 C2.6875 0.3125 2.6875 0.3125 5 1 C3.35 2.65 1.7 4.3 0 6 C-0.33 5.34 -0.66 4.68 -1 4 C-1.66 3.67 -2.32 3.34 -3 3 C-1.8125 1.4375 -1.8125 1.4375 0 0 Z " fill="#996EF3" transform="translate(229,181)"/>
<path d="M0 0 C1.98 1.65 3.96 3.3 6 5 C5.01 5.33 4.02 5.66 3 6 C2.01 5.34 1.02 4.68 0 4 C0 2.68 0 1.36 0 0 Z " fill="#B8A0F0" transform="translate(240,278)"/>
<path d="M0 0 C1.9375 0.8125 1.9375 0.8125 4 2 C4.33 2.99 4.66 3.98 5 5 C3.35 4.67 1.7 4.34 0 4 C0 2.68 0 1.36 0 0 Z " fill="#9D7AEF" transform="translate(361,248)"/>
<path d="M0 0 C0 3.52809907 -0.64276511 4.46815512 -3 7 C-3.99 7 -4.98 7 -6 7 C-6 6.34 -6 5.68 -6 5 C-4.04072937 3.2856382 -2.04119788 1.61594832 0 0 Z " fill="#9E7CEA" transform="translate(167,243)"/>
<path d="M0 0 C0.66 0 1.32 0 2 0 C1.25 2.4375 1.25 2.4375 0 5 C-2.125 5.8125 -2.125 5.8125 -4 6 C-4 5.34 -4 4.68 -4 4 C-3.34 4 -2.68 4 -2 4 C-2 3.34 -2 2.68 -2 2 C-1.34 2 -0.68 2 0 2 C0 1.34 0 0.68 0 0 Z " fill="#AE8DEF" transform="translate(259,203)"/>
<path d="M0 0 C0.33 0.66 0.66 1.32 1 2 C-1.45454545 7.72727273 -1.45454545 7.72727273 -4 9 C-3.35455571 5.51460083 -1.89865603 2.97180943 0 0 Z " fill="#956AF0" transform="translate(213,197)"/>
<path d="" fill="#FFFFFF" transform="translate(0,0)"/>
<path d="" fill="#FFFFFF" transform="translate(0,0)"/>
<path d="" fill="#FFFFFF" transform="translate(0,0)"/>
<path d="" fill="#FFFFFF" transform="translate(0,0)"/>
<path d="" fill="#FFFFFF" transform="translate(0,0)"/>
<path d="" fill="#FFFFFF" transform="translate(0,0)"/>
<path d="" fill="#FFFFFF" transform="translate(0,0)"/>
<path d="" fill="#FFFFFF" transform="translate(0,0)"/>
<path d="" fill="#FFFFFF" transform="translate(0,0)"/>
<path d="" fill="#FFFFFF" transform="translate(0,0)"/>
<path d="" fill="#FFFFFF" transform="translate(0,0)"/>
<path d="" fill="#FFFFFF" transform="translate(0,0)"/>
<path d="" fill="#FFFFFF" transform="translate(0,0)"/>
<path d="" fill="#FFFFFF" transform="translate(0,0)"/>
<path d="" fill="#FFFFFF" transform="translate(0,0)"/>
<path d="" fill="#FFFFFF" transform="translate(0,0)"/>
<path d="" fill="#FFFFFF" transform="translate(0,0)"/>
<path d="" fill="#FFFFFF" transform="translate(0,0)"/>
<path d="" fill="#FFFFFF" transform="translate(0,0)"/>
<path d="" fill="#FFFFFF" transform="translate(0,0)"/>
<path d="" fill="#FFFFFF" transform="translate(0,0)"/>
<path d="" fill="#FFFFFF" transform="translate(0,0)"/>
<path d="" fill="#FFFFFF" transform="translate(0,0)"/>
<path d="" fill="#FFFFFF" transform="translate(0,0)"/>
<path d="" fill="#FFFFFF" transform="translate(0,0)"/>
<path d="" fill="#FFFFFF" transform="translate(0,0)"/>
<path d="" fill="#FFFFFF" transform="translate(0,0)"/>
<path d="" fill="#FFFFFF" transform="translate(0,0)"/>
<path d="" fill="#FFFFFF" transform="translate(0,0)"/>
<path d="" fill="#FFFFFF" transform="translate(0,0)"/>
<path d="" fill="#FFFFFF" transform="translate(0,0)"/>
<path d="" fill="#FFFFFF" transform="translate(0,0)"/>
<path d="" fill="#FFFFFF" transform="translate(0,0)"/>
<path d="" fill="#FFFFFF" transform="translate(0,0)"/>
<path d="" fill="#FFFFFF" transform="translate(0,0)"/>
<path d="" fill="#FFFFFF" transform="translate(0,0)"/>
<path d="" fill="#FFFFFF" transform="translate(0,0)"/>
<path d="" fill="#FFFFFF" transform="translate(0,0)"/>
<path d="" fill="#FFFFFF" transform="translate(0,0)"/>
<path d="" fill="#FFFFFF" transform="translate(0,0)"/>
<path d="" fill="#FFFFFF" transform="translate(0,0)"/>
<path d="" fill="#FFFFFF" transform="translate(0,0)"/>
<path d="" fill="#FFFFFF" transform="translate(0,0)"/>
<path d="" fill="#FFFFFF" transform="translate(0,0)"/>
<path d="" fill="#FFFFFF" transform="translate(0,0)"/>
<path d="" fill="#FFFFFF" transform="translate(0,0)"/>
<path d="" fill="#FFFFFF" transform="translate(0,0)"/>
<path d="" fill="#FFFFFF" transform="translate(0,0)"/>
<path d="" fill="#FFFFFF" transform="translate(0,0)"/>
<path d="" fill="#FFFFFF" transform="translate(0,0)"/>
<path d="" fill="#FFFFFF" transform="translate(0,0)"/>
<path d="" fill="#FFFFFF" transform="translate(0,0)"/>
<path d="" fill="#FFFFFF" transform="translate(0,0)"/>
<path d="" fill="#FFFFFF" transform="translate(0,0)"/>
<path d="" fill="#FFFFFF" transform="translate(0,0)"/>
<path d="" fill="#FFFFFF" transform="translate(0,0)"/>
<path d="" fill="#FFFFFF" transform="translate(0,0)"/>
<path d="" fill="#FFFFFF" transform="translate(0,0)"/>
<path d="" fill="#FFFFFF" transform="translate(0,0)"/>
<path d="" fill="#FFFFFF" transform="translate(0,0)"/>
<path d="" fill="#FFFFFF" transform="translate(0,0)"/>
<path d="" fill="#FFFFFF" transform="translate(0,0)"/>
<path d="" fill="#FFFFFF" transform="translate(0,0)"/>
<path d="" fill="#FFFFFF" transform="translate(0,0)"/>
<path d="" fill="#FFFFFF" transform="translate(0,0)"/>
</svg>
