<svg version="1.1" id="Layer_1" xmlns="http://www.w3.org/2000/svg" xmlns:xlink="http://www.w3.org/1999/xlink" x="0px" y="0px"
	 width="100%" viewBox="0 0 1024 1024" enable-background="new 0 0 1024 1024" xml:space="preserve">
<path fill="#000000" opacity="1.000000" stroke="none" 
	d="
M556.773193,616.227051 
	C546.292847,605.297424 536.065674,594.614563 525.602844,583.685547 
	C525.770630,583.214661 526.812195,583.281738 527.807129,583.305176 
	C561.462097,584.097900 595.123657,583.795532 628.778259,583.536743 
	C640.590088,583.445862 652.321167,581.524292 663.447266,577.055542 
	C667.345520,575.489807 670.954102,573.467957 674.068604,570.613342 
	C683.686707,561.797791 682.648621,549.761108 671.543335,543.015381 
	C662.413330,537.469543 652.180176,535.117615 641.800659,533.355286 
	C613.788757,528.599182 585.361877,526.398865 557.698181,519.466309 
	C544.581665,516.179260 531.663452,512.428406 519.635010,506.124054 
	C506.352539,499.162384 497.025665,489.037262 495.197113,473.586884 
	C494.058716,463.968292 496.078705,455.091980 503.145081,447.793488 
	C520.187744,430.190979 538.031311,413.414825 555.606323,396.356628 
	C575.172852,377.365479 598.851257,369.162354 625.396606,368.957184 
	C674.387451,368.578491 723.383728,368.887817 772.377747,368.940674 
	C774.141479,368.942596 776.080688,368.475250 777.994690,370.508698 
	C773.279663,375.517181 768.592407,380.585785 763.807800,385.560730 
	C751.911926,397.929871 739.929932,410.216553 728.089539,422.638336 
	C726.077209,424.749481 724.038696,425.498962 721.109253,425.499786 
	C687.452881,425.509369 653.786560,424.762665 620.145935,426.319275 
	C611.149597,426.735535 602.281555,428.186920 593.729187,431.195038 
	C588.755371,432.944519 584.400757,435.627991 580.995667,439.690521 
	C575.027710,446.810577 576.181519,455.171661 583.859680,460.342865 
	C592.539673,466.188843 602.605652,467.915405 612.602234,469.646454 
	C635.860229,473.673889 659.406555,476.075104 682.375793,481.716736 
	C697.915955,485.533691 713.112976,490.195435 727.093811,498.458252 
	C755.190308,515.063599 763.889893,544.288574 755.467163,573.510254 
	C747.872192,599.859863 728.782471,615.897461 704.960144,626.964966 
	C683.172913,637.086975 659.861572,640.832092 636.033203,641.282593 
	C619.376343,641.597473 602.706238,641.156921 586.042175,641.178528 
	C582.994446,641.182495 580.655212,640.326782 578.506470,638.113892 
	C571.426575,630.822693 564.197937,623.676025 556.773193,616.227051 
z"/>
<path fill="#000000" opacity="1.000000" stroke="none" 
	d="
M347.066528,584.064209 
	C331.229614,599.742737 315.649811,615.176697 300.039795,630.640564 
	C297.968536,629.306458 298.731995,627.280273 298.728424,625.603638 
	C298.673737,599.940002 298.741669,574.276001 298.634247,548.612671 
	C298.619843,545.175354 299.674561,542.698181 302.120361,540.270752 
	C349.542267,493.205536 396.871735,446.047211 444.267853,398.956024 
	C453.368225,389.914154 462.707489,381.113068 471.853363,372.116333 
	C474.148193,369.858948 476.655457,368.881958 479.883087,368.894379 
	C505.879669,368.994354 531.876648,368.975891 557.873474,369.028107 
	C559.466309,369.031311 561.240356,368.626617 562.660461,370.296387 
	C561.297058,373.157074 558.380188,374.399628 556.252136,376.382812 
	C532.479431,398.537079 509.490967,421.495667 486.486603,444.433075 
	C441.763794,489.025696 397.177521,533.755249 352.539978,578.433289 
	C350.773651,580.201233 349.061188,582.023010 347.066528,584.064209 
z"/>
<path fill="#000000" opacity="1.000000" stroke="none" 
	d="
M443.090149,522.904419 
	C481.847351,562.034485 520.351562,600.905884 558.952576,639.874939 
	C558.083191,641.506470 556.224976,640.940613 554.684875,640.943542 
	C528.204407,640.993896 501.723755,640.963684 475.243408,641.040649 
	C472.172516,641.049561 469.925110,639.999329 467.798981,637.796814 
	C444.206177,613.355774 420.510010,589.014465 396.911621,564.578796 
	C389.720367,557.132446 391.041992,558.563538 396.816101,552.720459 
	C408.286804,541.112732 419.912231,529.657043 431.308441,517.977173 
	C433.963043,515.256470 435.871796,514.449829 438.373535,517.939392 
	C439.621490,519.680176 441.334503,521.087585 443.090149,522.904419 
z"/>
<path fill="#000000" opacity="1.000000" stroke="none" 
	d="
M344.997070,476.998108 
	C329.913849,492.000397 315.080963,506.753021 300.251099,521.502625 
	C297.927002,519.774841 298.720612,517.782654 298.718994,516.109863 
	C298.673126,469.156891 298.744568,422.203644 298.600677,375.251068 
	C298.586182,370.519653 299.945984,368.840790 304.790985,368.877441 
	C327.266907,369.047424 349.745880,369.004181 372.221802,368.810089 
	C376.633698,368.772003 378.064087,370.408020 378.042755,374.633881 
	C377.932617,396.444458 377.961761,418.255981 378.026367,440.066925 
	C378.034973,442.973724 376.920105,445.090057 374.913208,447.079498 
	C364.980927,456.925049 355.128204,466.850861 344.997070,476.998108 
z"/>
</svg>